:SAMPLES-PER-SECOND 30
:FULLY-SPECIFIED
:DEGREES
266
root  -7.96502 34.97 -28.7403 -169.771 66.3644 -178.224
RightUpLeg  -5.22011 -13.5927 -0.894395
RightLeg  -0.635299 1.53964 -0.116455
RightFoot  9.54404 0.00866632 0.382657
RightToes  -27.07 -0.123292 -0.232049
Spine  -2.80535 0.575973 -1.45985
Spine1  -5.46852 1.09351 -1.96637
HEad  -71.1693 -23.9249 7.54489
LeftShoulder1  -1.94126e-019 -3.10601e-018 -2.51263e-017
LeftArm  9.2547 9.36663 -79.3678
LeftForeArm  28.2059 -38.9227 -7.29736
LeftHand  -0.431277 -1.30383 7.63482
RightShoulder  -4.96962e-017 0 -2.36833e-017
RightArm  -8.24676 -3.33184 74.8126
RightForeArm  45.5119 64.7846 19.4495
RightHand  -0.0847814 -4.87861 -16.3698
LeftUpLeg  -3.80534 13.0706 -0.635414
LeftLeg  2.37361 23.5866 -0.523849
LeftFoot  3.77642 -0.0535829 1.81729
LeftToes  -9.94286 2.25955e-006 -3.67304e-008
267
root  -7.97175 34.9499 -28.7804 -170.044 65.0466 -178.482
RightUpLeg  -4.96677 -14.8513 -1.00094
RightLeg  -0.635345 1.55014 -0.117249
RightFoot  9.34071 0.00615889 0.390723
RightToes  -27.3499 -0.122788 -0.231651
Spine  -2.75376 0.348449 -1.34577
Spine1  -5.4907 0.730268 -1.83884
HEad  -70.2417 -24.4761 7.22251
LeftShoulder1  -1.94126e-019 -3.10601e-018 -2.51263e-017
LeftArm  3.68035 6.92396 -81.6801
LeftForeArm  33.3795 -21.855 -3.91812
LeftHand  -0.395257 -1.57088 6.7608
RightShoulder  -4.96962e-017 0 -2.36833e-017
RightArm  -7.53247 -4.98557 75.1658
RightForeArm  31.5113 46.6039 9.5869
RightHand  -0.0167786 -5.40871 -11.427
LeftUpLeg  -3.90946 11.709 -0.693468
LeftLeg  2.42944 23.6908 -0.503593
LeftFoot  3.62176 -0.0503317 1.75345
LeftToes  -9.59259 2.25955e-006 -3.67304e-008
268
root  -7.84076 34.8876 -28.7819 -170.183 65.2415 -178.519
RightUpLeg  -5.17878 -14.058 -1.03353
RightLeg  0.41359 0.945947 -0.05393
RightFoot  8.50391 0.0112218 0.289499
RightToes  -27.5303 -0.122329 -0.231263
Spine  -2.65776 0.579946 -1.21691
Spine1  -5.40331 1.26357 -1.73984
HEad  -69.7246 -24.4939 6.26642
LeftShoulder1  -1.94126e-019 -3.10601e-018 -2.51263e-017
LeftArm  0.223191 6.02501 -82.3851
LeftForeArm  39.9843 -8.08255 -1.41059
LeftHand  -0.362748 -0.949119 6.77404
RightShoulder  -4.96962e-017 0 -2.36833e-017
RightArm  -7.59683 -4.37862 76.7192
RightForeArm  30.5373 21.9554 3.09654
RightHand  -0.0700651 -4.34418 -5.64234
LeftUpLeg  -4.00902 12.7107 -0.556075
LeftLeg  3.38084 22.9043 -0.117584
LeftFoot  2.983 -0.0327127 1.41792
LeftToes  -9.57565 2.25955e-006 -3.67304e-008
269
root  -7.73565 34.7029 -28.8037 -170.503 64.6716 -178.846
RightUpLeg  -6.98109 -14.334 -1.15787
RightLeg  4.67178 0.65426 0.0122423
RightFoot  6.0365 0.0130118 0.233929
RightToes  -27.331 -0.121914 -0.230882
Spine  -2.26395 0.879673 -1.12567
Spine1  -4.85295 2.08145 -1.78251
HEad  -70.6462 -24.5409 6.32641
LeftShoulder1  -1.94126e-019 -3.10601e-018 -2.51263e-017
LeftArm  1.3844 7.1848 -81.9337
LeftForeArm  44.4829 -4.0604 -0.692623
LeftHand  -0.343535 0.550947 8.25373
RightShoulder  -4.96962e-017 0 -2.36833e-017
RightArm  -17.8758 -4.84431 77.2069
RightForeArm  55.6276 5.35233 0.913072
RightHand  -0.0446866 -3.92883 -1.96212
LeftUpLeg  -5.8108 11.9006 -0.570304
LeftLeg  7.71003 23.0806 1.58036
LeftFoot  1.10372 -0.00425539 0.6034
LeftToes  -9.73322 2.25955e-006 -3.67304e-008
270
root  -7.65761 34.6029 -28.8149 -170.559 64.5686 -178.99
RightUpLeg  -8.01085 -14.2103 -1.18207
RightLeg  6.89421 0.387043 0.0228235
RightFoot  4.84376 0.0147495 0.178028
RightToes  -27.2338 -0.121538 -0.230506
Spine  -2.04272 1.12012 -1.00903
Spine1  -4.41383 2.49438 -1.63997
HEad  -73.1706 -24.9163 7.89736
LeftShoulder1  -1.94126e-019 -3.10601e-018 -2.51263e-017
LeftArm  2.54016 9.69884 -80.8867
LeftForeArm  47.1816 -4.17834 -0.707026
LeftHand  -0.416272 0.346978 9.62296
RightShoulder  -4.96962e-017 0 -2.36833e-017
RightArm  -18.5995 -9.39308 76.9463
RightForeArm  72.0856 0.486449 0.0220554
RightHand  -0.00766563 -6.40254 -2.78078
LeftUpLeg  -6.78392 11.7242 -0.574856
LeftLeg  9.95625 23.0632 2.46502
LeftFoot  0.19955 -5.49818e-005 0.193262
LeftToes  -9.73354 2.25955e-006 -3.67304e-008
271
root  -7.60318 34.5424 -28.8183 -170.402 64.4662 -179.007
RightUpLeg  -8.7538 -14.1223 -1.12236
RightLeg  8.25332 0.171352 0.0148084
RightFoot  4.06482 0.0145752 0.118462
RightToes  -26.613 -0.121199 -0.230132
Spine  -2.0927 1.22682 -0.864898
Spine1  -4.41327 2.48492 -1.35384
HEad  -75.3876 -25.5615 9.46236
LeftShoulder1  -1.94126e-019 -3.10601e-018 -2.51263e-017
LeftArm  2.8924 13.3777 -79.5693
LeftForeArm  44.8881 -6.37469 -1.09416
LeftHand  -0.502005 -0.731661 9.6428
RightShoulder  -4.96962e-017 0 -2.36833e-017
RightArm  -26.1254 -16.4302 76.157
RightForeArm  70.1517 0.700827 0.0677303
RightHand  0.129438 -8.79356 -5.74915
LeftUpLeg  -7.50579 11.5983 -0.559056
LeftLeg  11.3367 23.0322 3.00864
LeftFoot  -0.356515 -0.000727514 -0.0722931
LeftToes  -9.6634 2.25955e-006 -3.67304e-008
272
root  -7.56417 34.4787 -28.8338 -170.26 64.1305 -178.99
RightUpLeg  -9.34934 -14.3405 -1.08049
RightLeg  9.44997 0.0750963 0.00863447
RightFoot  3.43519 0.0124103 0.0775284
RightToes  -26.7505 -0.120891 -0.229757
Spine  -2.13083 0.735711 -0.51353
Spine1  -4.38386 1.24872 -0.557037
HEad  -76.4813 -25.1476 9.82918
LeftShoulder1  -1.94126e-019 -3.10601e-018 -2.51263e-017
LeftArm  1.67597 18.1192 -78.4005
LeftForeArm  37.8733 -9.40798 -1.6417
LeftHand  -0.477463 -1.51861 8.19102
RightShoulder  -4.96962e-017 0 -2.36833e-017
RightArm  -39.5201 -21.9153 74.8923
RightForeArm  63.3312 1.45448 0.216413
RightHand  0.106361 -7.41116 -7.84785
LeftUpLeg  -8.20248 11.3847 -0.53317
LeftLeg  12.6521 22.8861 3.51124
LeftFoot  -0.934948 -0.00406585 -0.336741
LeftToes  -9.79739 2.25955e-006 -3.67304e-008
273
root  -7.52317 34.3902 -28.8606 -170.41 63.6919 -179.22
RightUpLeg  -9.98997 -14.6686 -1.18204
RightLeg  10.9603 -0.023344 -0.00209068
RightFoot  2.50253 0.0105872 0.0476722
RightToes  -26.8535 -0.120613 -0.229379
Spine  -2.25362 0.103168 -0.254715
Spine1  -4.5476 -0.230108 0.0541763
HEad  -76.3802 -24.5007 9.71287
LeftShoulder1  -1.94126e-019 -3.10601e-018 -2.51263e-017
LeftArm  0.51687 23.3644 -77.4619
LeftForeArm  29.569 -12.7267 -2.11212
LeftHand  -0.400846 -1.61516 6.81432
RightShoulder  -4.96962e-017 0 -2.36833e-017
RightArm  -44.5221 -26.8369 74.3214
RightForeArm  52.6276 4.17106 0.710735
RightHand  -0.0403872 -4.93116 -4.37972
LeftUpLeg  -8.90402 10.9745 -0.603645
LeftLeg  14.1569 22.7671 4.09064
LeftFoot  -1.56551 -0.0106443 -0.617495
LeftToes  -10.0151 2.25955e-006 -3.67304e-008
274
root  -7.49101 34.3094 -28.8844 -170.48 63.3415 -179.398
RightUpLeg  -10.5686 -14.8408 -1.25369
RightLeg  12.2164 -0.193495 -0.0283426
RightFoot  1.72549 0.00968719 0.0342521
RightToes  -27.0031 -0.12036 -0.228994
Spine  -2.41145 -0.430113 -0.0981141
Spine1  -4.78475 -1.41962 0.454997
HEad  -76.0743 -23.8018 9.4739
LeftShoulder1  -1.94126e-019 -3.10601e-018 -2.51263e-017
LeftArm  -1.9988 27.7995 -77.2822
LeftForeArm  24.589 -14.3585 -2.3151
LeftHand  -0.334037 -1.80359 5.5698
RightShoulder  -4.96962e-017 0 -2.36833e-017
RightArm  -45.8524 -30.3156 74.131
RightForeArm  46.9422 6.20157 1.0773
RightHand  -0.0589054 -3.60354 -2.67124
LeftUpLeg  -9.41932 10.6657 -0.667813
LeftLeg  15.178 22.6444 4.47535
LeftFoot  -2.09347 -0.018275 -0.838612
LeftToes  -9.94825 2.25955e-006 -3.67304e-008
275
root  -7.45354 34.2468 -28.9083 -170.5 63.3687 -179.48
RightUpLeg  -11.0065 -14.7585 -1.30458
RightLeg  13.159 -0.255055 -0.042076
RightFoot  1.11089 0.00806916 0.0399648
RightToes  -26.9294 -0.120129 -0.228601
Spine  -2.54862 -0.826097 0.0124989
Spine1  -4.98208 -2.21772 0.729836
HEad  -75.9277 -22.8625 9.53131
LeftShoulder1  -1.94126e-019 -3.10601e-018 -2.51263e-017
LeftArm  -5.38153 31.0437 -77.9393
LeftForeArm  23.8265 -13.9085 -2.28386
LeftHand  -0.364592 -1.83408 6.04079
RightShoulder  -4.96962e-017 0 -2.36833e-017
RightArm  -43.5652 -32.205 73.9264
RightForeArm  46.8981 6.97674 1.21313
RightHand  -0.0942596 -3.51353 -4.85045
LeftUpLeg  -9.6216 10.9909 -0.699148
LeftLeg  15.6834 22.306 4.61099
LeftFoot  -2.46616 -0.0243303 -0.968728
LeftToes  -9.96183 2.25955e-006 -3.67304e-008
276
root  -7.42195 34.2006 -28.915 -170.354 63.8281 -179.328
RightUpLeg  -11.3394 -14.2912 -1.26253
RightLeg  13.7992 -0.276631 -0.0490148
RightFoot  0.694758 0.00658858 0.051599
RightToes  -26.6018 -0.119916 -0.228196
Spine  -2.6477 -0.93784 0.144035
Spine1  -5.11609 -2.37597 1.0025
HEad  -75.8022 -22.1342 9.48316
LeftShoulder1  -1.94126e-019 -3.10601e-018 -2.51263e-017
LeftArm  -8.54318 32.8239 -79.2328
LeftForeArm  25.42 -11.8385 -2.03036
LeftHand  -0.435058 -1.51966 7.47671
RightShoulder  -4.96962e-017 0 -2.36833e-017
RightArm  -41.3916 -33.0627 73.6756
RightForeArm  50.624 7.06272 1.22221
RightHand  -0.100585 -4.19841 -8.17761
LeftUpLeg  -9.5816 11.5782 -0.643937
LeftLeg  15.8195 22.163 4.63636
LeftFoot  -2.69284 -0.0282637 -1.04089
LeftToes  -9.99522 2.25955e-006 -3.67304e-008
